<svg xmlns="http://www.w3.org/2000/svg" class="icon icon-tabler" viewBox="0 0 24 24" height="24" width="24" stroke="currentColor" fill="none" stroke-linecap="round" stroke-linejoin="round" stroke-width="2"><g>
<path d="M9.104 9.583a0.479 0.479 0 0 1 -0.479 0.479H3.833a0.479 0.479 0 0 1 -0.479 -0.479V4.792a0.479 0.479 0 0 1 0.479 -0.479h4.792a0.479 0.479 0 0 1 0.479 0.479Z"></path>
<path d="m11.021 4.313 2.875 0"></path>
<path d="m11.021 7.188 2.875 0"></path>
<path d="m11.021 10.063 2.875 0"></path>
<path d="m3.354 12.938 10.542 0"></path>
<path d="m3.354 15.813 10.542 0"></path>
<path d="m3.354 18.688 10.542 0"></path>
<path d="M19.646 22.521h-16.292a2.875 2.875 0 0 1 -2.875 -2.875v-18.208a0.958 0.958 0 0 1 0.958 -0.958h14.375a0.958 0.958 0 0 1 0.958 0.958v18.208a2.875 2.875 0 0 0 5.75 0v-16.292"></path>
<path d="m19.646 3.354 0 16.771"></path>
</g></svg>